# xmcd CD database file
#
# Track frame offsets:
#	150
#	15812
#	34081
#	49731
#
# Disc length: 904 seconds
#
# Revision: 5
# Processed by: cddbd v1.5.2PL0 Copyright (c) Steve Scherf et al.
# Submitted via: CDex 1.70beta1
#
DISCID=21038604
DTITLE=トリオ・ザ・シャキーン - 愛しのナポリタン
DYEAR=2007
DGENRE=JPop
TTITLE0=愛しのナポリタン
TTITLE1=いただきマス　！
TTITLE2=愛しのナポリタン（オリジナル・カラオケ）
TTITLE3=いただきマス　！（オリジナル・カラオケ）
EXTD=YEAR: 2007
EXTT0=
EXTT1=
EXTT2=
EXTT3=
PLAYORDER=
